<?xml version="1.0" encoding="UTF-8" standalone="no"?>
<svg
   xmlns:dc="http://purl.org/dc/elements/1.1/"
   xmlns:cc="http://creativecommons.org/ns#"
   xmlns:rdf="http://www.w3.org/1999/02/22-rdf-syntax-ns#"
   xmlns:svg="http://www.w3.org/2000/svg"
   xmlns="http://www.w3.org/2000/svg"
   xmlns:sodipodi="http://sodipodi.sourceforge.net/DTD/sodipodi-0.dtd"
   xmlns:inkscape="http://www.inkscape.org/namespaces/inkscape"
   width="1545.2742"
   height="263.54639"
   viewBox="0 0 1545.2742 263.54639"
   version="1.1"
   id="svg46"
   sodipodi:docname="logo2.svg"
   style="fill:none"
   inkscape:version="0.92.5 (2060ec1f9f, 2020-04-08)">
  <metadata
     id="metadata52">
    <rdf:RDF>
      <cc:Work
         rdf:about="">
        <dc:format>image/svg+xml</dc:format>
        <dc:type
           rdf:resource="http://purl.org/dc/dcmitype/StillImage" />
      </cc:Work>
    </rdf:RDF>
  </metadata>
  <defs
     id="defs50" />
  <sodipodi:namedview
     pagecolor="#ffffff"
     bordercolor="#666666"
     borderopacity="1"
     objecttolerance="10"
     gridtolerance="10"
     guidetolerance="10"
     inkscape:pageopacity="0"
     inkscape:pageshadow="2"
     inkscape:window-width="640"
     inkscape:window-height="480"
     id="namedview48"
     showgrid="false"
     inkscape:zoom="0.26977315"
     inkscape:cx="810.23413"
     inkscape:cy="131.773"
     inkscape:window-x="0"
     inkscape:window-y="0"
     inkscape:window-maximized="0"
     inkscape:current-layer="svg46" />
  <path
     d="m 665.53613,62.7734 h 50.4 c 8.4,0 14.48,1.92 18.24,5.76 3.84,3.76 5.76,9.84 5.76,18.24 v 10.8 c 0,6.64 -1.12,11.8 -3.36,15.48 -2.16,3.68 -5.64,6.12 -10.44,7.32 l 15,26.4 h -23.4 l -13.8,-25.2 h -16.8 v 25.2 h -21.6 z m 52.8,24 c 0,-4.8 -2.4,-7.2 -7.2,-7.2 h -24 v 25.2 h 24 c 4.8,0 7.2,-2.4 7.2,-7.2 z m 87.567,-1.2 c 0,-4.8 -2.4,-7.2 -7.2,-7.2 h -20.4 c -4.8,0 -7.2,2.4 -7.2,7.2 v 38.4 c 0,4.8 2.4,7.2 7.2,7.2 h 20.4 c 4.8,0 7.2,-2.4 7.2,-7.2 z m 21.6,38.4 c 0,8.4 -1.92,14.52 -5.76,18.36 -3.76,3.76 -9.84,5.64 -18.24,5.64 h -30 c -8.4,0 -14.52,-1.88 -18.36,-5.64 -3.76,-3.84 -5.64,-9.96 -5.64,-18.36 v -38.4 c 0,-8.4 1.88,-14.48 5.64,-18.24 3.84,-3.84 9.96,-5.76 18.36,-5.76 h 30 c 8.4,0 14.48,1.92 18.24,5.76 3.84,3.76 5.76,9.84 5.76,18.24 z m 12.056,-61.2 h 48 c 7.84,0 13.6,1.8 17.28,5.4 3.68,3.52 5.52,8.92 5.52,16.2 0,4.8 -1.04,8.72 -3.12,11.76 -2.08,2.96 -4.64,5.04 -7.68,6.24 6.48,1.76 10.88,6.08 13.2,12.96 0.8,2.48 1.2,5.36 1.2,8.64 0,7.84 -1.84,13.6 -5.52,17.28 -3.68,3.68 -9.44,5.52 -17.28,5.52 h -51.6 z m 52.8,57.6 c 0,-4.8 -2.4,-7.2 -7.2,-7.2 h -24 v 16.8 h 24 c 4.8,0 7.2,-2.4 7.2,-7.2 z m -3.6,-33.6 c 0,-4.8 -2.4,-7.2 -7.2,-7.2 h -20.4 v 16.8 h 20.4 c 4.8,0 7.2,-2.4 7.2,-7.2 z m 89.995,-1.2 c 0,-4.8 -2.4,-7.2 -7.2,-7.2 h -20.4 c -4.8,0 -7.2,2.4 -7.2,7.2 v 38.4 c 0,4.8 2.4,7.2 7.2,7.2 h 20.4 c 4.8,0 7.2,-2.4 7.2,-7.2 z m 21.59997,38.4 c 0,8.4 -1.91997,14.52 -5.75997,18.36 -3.76,3.76 -9.84,5.64 -18.24,5.64 h -30 c -8.4,0 -14.52,-1.88 -18.36,-5.64 -3.76,-3.84 -5.64,-9.96 -5.64,-18.36 v -38.4 c 0,-8.4 1.88,-14.48 5.64,-18.24 3.84,-3.84 9.96,-5.76 18.36,-5.76 h 30 c 8.4,0 14.48,1.92 18.24,5.76 3.84,3.76 5.75997,9.84 5.75997,18.24 z m 52.86,22.8 h -21.6 v -67.2 h -25.2 v -16.8 h 72 v 16.8 h -25.2 z m 73.21,0 h -43.2 v -16.8 h 10.8 v -50.4 h -10.8 v -16.8 h 43.2 v 16.8 h -10.8 v 50.4 h 10.8 z m 74.39,-67.2 -42,50.4 h 42 v 16.8 h -68.4 v -16.8 l 42,-50.4 h -42 v -16.8 h 68.4 z m 24.64,67.2 h -23.4 l 31.8,-84 h 24 l 31.8,84 h -23.4 l -5.4,-15 h -30 z m 10.8,-30.6 h 19.2 l -9.6,-28.2 z m 132.6,30.6 h -22.8 l -28.8,-50.4 v 50.4 h -21.6 v -84 h 22.8 l 28.8,50.4 v -50.4 h 21.6 z m 61.26,-84 c 9.04,0 15.88,2.36 20.52,7.08 4.72,4.64 7.08,11.48 7.08,20.52 v 28.8 c 0,9.04 -2.36,15.92 -7.08,20.64 -4.64,4.64 -11.48,6.96 -20.52,6.96 h -46.8 v -84 z m 6,27.6 c 0,-7.2 -3.6,-10.8 -10.8,-10.8 h -20.4 v 50.4 h 20.4 c 7.2,0 10.8,-3.6 10.8,-10.8 z m 87.56,-4.8 c 0,-4.8 -2.4,-7.2 -7.2,-7.2 h -20.4 c -4.8,0 -7.2,2.4 -7.2,7.2 v 38.4 c 0,4.8 2.4,7.2 7.2,7.2 h 20.4 c 4.8,0 7.2,-2.4 7.2,-7.2 z m 21.6,38.4 c 0,8.4 -1.92,14.52 -5.76,18.36 -3.76,3.76 -9.84,5.64 -18.24,5.64 h -30 c -8.4,0 -14.52,-1.88 -18.36,-5.64 -3.76,-3.84 -5.64,-9.96 -5.64,-18.36 v -38.4 c 0,-8.4 1.88,-14.48 5.64,-18.24 3.84,-3.84 9.96,-5.76 18.36,-5.76 h 30 c 8.4,0 14.48,1.92 18.24,5.76 3.84,3.76 5.76,9.84 5.76,18.24 z"
     id="path2"
     inkscape:connector-curvature="0"
     style="fill:#454e57" />
  <path
     d="m 697.15813,172.7734 h 12.6 v 35.7 c 0,4.9 -1.12,8.47 -3.36,10.71 -2.194,2.193 -5.74,3.29 -10.64,3.29 h -16.1 c -4.9,0 -8.47,-1.097 -10.71,-3.29 -2.194,-2.24 -3.29,-5.81 -3.29,-10.71 v -35.7 h 12.6 v 35.7 c 0,2.8 1.4,4.2 4.2,4.2 h 10.5 c 2.8,0 4.2,-1.4 4.2,-4.2 z m 33.6,49 h -12.6 v -49 h 38.85 v 9.8 h -26.25 v 11.55 h 20.65 v 9.8 h -20.65 z m 29.68,-10.15 c 12.786,0.7 21.443,1.05 25.97,1.05 1.073,0 1.913,-0.303 2.52,-0.91 0.653,-0.653 0.98,-1.517 0.98,-2.59 v -6.3 h -16.1 c -4.9,0 -8.47,-1.097 -10.71,-3.29 -2.194,-2.24 -3.29,-5.81 -3.29,-10.71 v -2.1 c 0,-4.9 1.096,-8.447 3.29,-10.64 2.24,-2.24 5.81,-3.36 10.71,-3.36 h 24.57 v 9.8 h -21.77 c -2.8,0 -4.2,1.4 -4.2,4.2 v 1.4 c 0,2.8 1.4,4.2 4.2,4.2 h 12.6 c 4.573,0 7.933,1.073 10.08,3.22 2.146,2.147 3.22,5.507 3.22,10.08 v 3.5 c 0,4.573 -1.074,7.933 -3.22,10.08 -2.147,2.147 -5.507,3.22 -10.08,3.22 -2.38,0 -4.9,-0.047 -7.56,-0.14 l -6.44,-0.28 c -4.76,-0.233 -9.684,-0.56 -14.77,-0.98 z m 86.164,9.45 c -10.407,0.933 -19.04,1.4 -25.9,1.4 -4.573,0 -7.933,-1.073 -10.08,-3.22 -2.147,-2.147 -3.22,-5.507 -3.22,-10.08 v -22.4 c 0,-4.9 1.097,-8.447 3.29,-10.64 2.24,-2.24 5.81,-3.36 10.71,-3.36 h 25.2 v 9.8 h -22.4 c -2.8,0 -4.2,1.4 -4.2,4.2 v 22.4 c 0,1.073 0.303,1.937 0.91,2.59 0.653,0.607 1.47,0.91 2.45,0.91 0.98,0 2.053,0 3.22,0 1.167,-0.047 2.38,-0.093 3.64,-0.14 1.26,-0.047 2.52,-0.093 3.78,-0.14 1.307,-0.047 2.963,-0.14 4.97,-0.28 2.053,-0.14 4.597,-0.303 7.63,-0.49 z"
     id="path4"
     inkscape:connector-curvature="0"
     style="fill:#e73d3a" />
  <path
     d="m 290.32413,237.7144 c 0,14.286 11.581,25.832 25.91,25.832 14.329,0 25.91,-11.546 25.91,-25.832 v -1.631 h -51.82 z"
     id="path6"
     inkscape:connector-curvature="0"
     style="fill:#3b4652" />
  <path
     d="m 387.81413,71.3664 c 0,-19.7008 -8.048,-37.575 -20.937,-50.4914 C 353.92113,7.9586 335.99413,0 316.23413,0 c -39.52,0 -71.58,31.9648 -71.58,71.3664 v 6.067 h 143.16 z m -95.789,-7.1106 c -7.328,0 -13.217,-5.8711 -13.217,-13.1773 0,-7.3063 5.889,-13.1774 13.217,-13.1774 7.328,0 13.217,5.8711 13.217,13.1774 0,7.3062 -5.954,13.1773 -13.217,13.1773 z m 48.418,0 c -7.328,0 -13.217,-5.8711 -13.217,-13.1773 0,-7.3063 5.889,-13.1774 13.217,-13.1774 7.328,0 13.217,5.8711 13.217,13.1774 0.065,7.3062 -5.889,13.1773 -13.217,13.1773 z"
     id="path8"
     inkscape:connector-curvature="0"
     style="fill:#3b4652" />
  <path
     d="m 244.65413,186.4394 c 0,22.376 18.189,40.511 40.632,40.511 h 61.896 c 22.443,0 40.632,-18.135 40.632,-40.511 v -99.808 h -143.16 z m 44.623,-63.538 h 53.979 v 39.597 c 0,14.874 -12.104,26.877 -26.957,26.877 -14.852,0 -26.957,-12.068 -26.957,-26.877 v -39.597 z"
     id="path10"
     inkscape:connector-curvature="0"
     style="fill:#e73d3a" />
  <path
     d="m 218.74413,120.7484 v 12.656 c -14.526,0 -26.368,-11.808 -26.368,-26.29 v -28.05 c 7.851,-1.892 13.871,-8.611 14.721,-16.7656 l 10.076,-10.0461 c 0.851,-0.848 1.374,-2.0223 1.374,-3.1965 V 31.6386 c 0,-2.5441 -2.028,-4.5664 -4.58,-4.5664 -2.551,0 -4.58,2.0223 -4.58,4.5664 v 15.5258 l -4.318,4.3055 c -3.206,-6.1973 -9.749,-10.4375 -17.208,-10.4375 -7.459,0 -14.002,4.2402 -17.208,10.4375 l -4.318,-4.3055 V 31.6386 c 0,-2.5441 -2.029,-4.5664 -4.58,-4.5664 -2.552,0 -4.581,2.0223 -4.581,4.5664 v 17.4176 c 0,1.2395 0.458,2.3485 1.309,3.1965 l 10.076,10.0461 c 0.851,8.2196 6.87,14.8736 14.722,16.7656 v 28.05 c 0,19.505 15.965,35.423 35.528,35.423 v 15.786 c 0,5.676 4.58,10.307 10.338,10.307 h 6.412 v -58.123 h -6.412 c -5.823,0 -10.403,4.566 -10.403,10.241 z"
     id="path12"
     inkscape:connector-curvature="0"
     style="fill:#3b4652" />
  <path
     d="m 470.84413,27.0722 c -2.551,0 -4.58,2.0223 -4.58,4.5664 v 15.5258 l -4.318,4.3055 c -3.206,-6.1973 -9.749,-10.4375 -17.208,-10.4375 -7.459,0 -14.002,4.2402 -17.208,10.4375 l -4.318,-4.3055 V 31.6386 c 0,-2.5441 -2.029,-4.5664 -4.581,-4.5664 -2.551,0 -4.58,2.0223 -4.58,4.5664 v 17.4176 c 0,1.2395 0.458,2.3485 1.374,3.1965 l 10.077,10.0461 c 0.85,8.2196 6.87,14.8736 14.721,16.7656 v 28.05 c 0,14.482 -11.843,26.29 -26.368,26.29 v -12.656 c 0,-5.675 -4.58,-10.307 -10.338,-10.307 h -6.412 v 58.124 h 6.412 c 5.693,0 10.338,-4.631 10.338,-10.307 v -15.787 c 19.564,0 35.528,-15.917 35.528,-35.422 v -28.051 c 7.852,-1.891 13.872,-8.611 14.722,-16.7648 l 10.076,-10.0461 c 0.851,-0.8481 1.309,-2.0223 1.309,-3.1965 V 31.5734 c -0.066,-2.4789 -2.159,-4.5012 -4.646,-4.5012 z"
     id="path14"
     inkscape:connector-curvature="0"
     style="fill:#3b4652" />
  <path
     d="m 290.32413,237.7144 c 0,14.286 11.581,25.832 25.91,25.832 14.329,0 25.91,-11.546 25.91,-25.832 v -1.631 h -51.82 z"
     id="path16"
     inkscape:connector-curvature="0"
     style="fill:#3b4652" />
  <path
     d="m 387.81413,71.3664 c 0,-19.7008 -8.048,-37.575 -20.937,-50.4914 C 353.92113,7.9586 335.99413,0 316.23413,0 c -39.52,0 -71.58,31.9648 -71.58,71.3664 v 6.067 h 143.16 z m -95.789,-7.1106 c -7.328,0 -13.217,-5.8711 -13.217,-13.1773 0,-7.3063 5.889,-13.1774 13.217,-13.1774 7.328,0 13.217,5.8711 13.217,13.1774 0,7.3062 -5.954,13.1773 -13.217,13.1773 z m 48.418,0 c -7.328,0 -13.217,-5.8711 -13.217,-13.1773 0,-7.3063 5.889,-13.1774 13.217,-13.1774 7.328,0 13.217,5.8711 13.217,13.1774 0.065,7.3062 -5.889,13.1773 -13.217,13.1773 z"
     id="path18"
     inkscape:connector-curvature="0"
     style="fill:#3b4652" />
  <path
     d="m 244.65413,186.4394 c 0,22.376 18.189,40.511 40.632,40.511 h 61.896 c 22.443,0 40.632,-18.135 40.632,-40.511 v -99.808 h -143.16 z m 44.623,-63.538 h 53.979 v 39.597 c 0,14.874 -12.104,26.877 -26.957,26.877 -14.852,0 -26.957,-12.068 -26.957,-26.877 v -39.597 z"
     id="path20"
     inkscape:connector-curvature="0"
     style="fill:#e73d3a" />
  <path
     d="m 218.74413,120.7484 v 12.656 c -14.526,0 -26.368,-11.808 -26.368,-26.29 v -28.05 c 7.851,-1.892 13.871,-8.611 14.721,-16.7656 l 10.076,-10.0461 c 0.851,-0.848 1.374,-2.0223 1.374,-3.1965 V 31.6386 c 0,-2.5441 -2.028,-4.5664 -4.58,-4.5664 -2.551,0 -4.58,2.0223 -4.58,4.5664 v 15.5258 l -4.318,4.3055 c -3.206,-6.1973 -9.749,-10.4375 -17.208,-10.4375 -7.459,0 -14.002,4.2402 -17.208,10.4375 l -4.318,-4.3055 V 31.6386 c 0,-2.5441 -2.029,-4.5664 -4.58,-4.5664 -2.552,0 -4.581,2.0223 -4.581,4.5664 v 17.4176 c 0,1.2395 0.458,2.3485 1.309,3.1965 l 10.076,10.0461 c 0.851,8.2196 6.87,14.8736 14.722,16.7656 v 28.05 c 0,19.505 15.965,35.423 35.528,35.423 v 15.786 c 0,5.676 4.58,10.307 10.338,10.307 h 6.412 v -58.123 h -6.412 c -5.823,0 -10.403,4.566 -10.403,10.241 z"
     id="path22"
     inkscape:connector-curvature="0"
     style="fill:#3b4652" />
  <path
     d="m 470.84413,27.0722 c -2.551,0 -4.58,2.0223 -4.58,4.5664 v 15.5258 l -4.318,4.3055 c -3.206,-6.1973 -9.749,-10.4375 -17.208,-10.4375 -7.459,0 -14.002,4.2402 -17.208,10.4375 l -4.318,-4.3055 V 31.6386 c 0,-2.5441 -2.029,-4.5664 -4.581,-4.5664 -2.551,0 -4.58,2.0223 -4.58,4.5664 v 17.4176 c 0,1.2395 0.458,2.3485 1.374,3.1965 l 10.077,10.0461 c 0.85,8.2196 6.87,14.8736 14.721,16.7656 v 28.05 c 0,14.482 -11.843,26.29 -26.368,26.29 v -12.656 c 0,-5.675 -4.58,-10.307 -10.338,-10.307 h -6.412 v 58.124 h 6.412 c 5.693,0 10.338,-4.631 10.338,-10.307 v -15.787 c 19.564,0 35.528,-15.917 35.528,-35.422 v -28.051 c 7.852,-1.891 13.872,-8.611 14.722,-16.7648 l 10.076,-10.0461 c 0.851,-0.8481 1.309,-2.0223 1.309,-3.1965 V 31.5734 c -0.066,-2.4789 -2.159,-4.5012 -4.646,-4.5012 z"
     id="path24"
     inkscape:connector-curvature="0"
     style="fill:#3b4652" />
  <path
     d="m 516.06913,236.5654 c 0,8.94 7.225,16.165 16.165,16.165 8.94,0 16.165,-7.225 16.165,-16.165 v -1.02 h -32.33 z"
     id="path26"
     inkscape:connector-curvature="0"
     style="fill:#3b4652" />
  <path
     d="m 576.89113,132.4734 c 0,-12.327 -5.021,-23.512 -13.062,-31.595 -8.083,-8.082 -19.267,-13.062 -31.595,-13.062 -24.656,0 -44.657,20.002 -44.657,44.657 v 3.797 h 89.314 z m -59.761,-4.449 c -4.571,0 -8.245,-3.674 -8.245,-8.246 0,-4.572 3.674,-8.245 8.245,-8.245 4.572,0 8.246,3.673 8.246,8.245 0,4.572 -3.715,8.246 -8.246,8.246 z m 30.207,0 c -4.571,0 -8.245,-3.674 -8.245,-8.246 0,-4.572 3.674,-8.245 8.245,-8.245 4.572,0 8.246,3.673 8.246,8.245 0.041,4.572 -3.674,8.246 -8.246,8.246 z"
     id="path28"
     inkscape:connector-curvature="0"
     style="fill:#3b4652" />
  <path
     d="m 487.57713,204.4804 c 0,14.002 11.348,25.35 25.349,25.35 h 38.616 c 14.001,0 25.349,-11.348 25.349,-25.35 v -62.455 h -89.314 z m 27.839,-39.759 h 33.677 v 24.778 c 0,9.307 -7.552,16.818 -16.818,16.818 -9.266,0 -16.818,-7.551 -16.818,-16.818 v -24.778 z"
     id="path30"
     inkscape:connector-curvature="0"
     style="fill:#e73d3a" />
  <path
     d="m 471.41213,163.3744 v 7.92 c -9.062,0 -16.451,-7.389 -16.451,-16.451 v -17.553 c 4.899,-1.184 8.654,-5.388 9.185,-10.491 l 6.286,-6.286 c 0.531,-0.531 0.857,-1.265 0.857,-2 v -10.899 c 0,-1.592 -1.265,-2.858 -2.857,-2.858 -1.592,0 -2.858,1.266 -2.858,2.858 v 9.715 l -2.694,2.694 c -2,-3.878 -6.082,-6.531 -10.735,-6.531 -4.654,0 -8.736,2.653 -10.736,6.531 l -2.694,-2.694 v -9.715 c 0,-1.592 -1.266,-2.858 -2.858,-2.858 -1.592,0 -2.857,1.266 -2.857,2.858 v 10.899 c 0,0.775 0.286,1.469 0.816,2 l 6.287,6.286 c 0.53,5.144 4.286,9.307 9.184,10.491 v 17.553 c 0,12.205 9.96,22.165 22.166,22.165 v 9.879 c 0,3.551 2.857,6.449 6.449,6.449 h 4.001 v -36.37 h -4.001 c -3.633,0 -6.49,2.857 -6.49,6.408 z"
     id="path32"
     inkscape:connector-curvature="0"
     style="fill:#3b4652" />
  <path
     d="m 628.69213,104.7564 c -1.592,0 -2.857,1.266 -2.857,2.858 v 9.715 l -2.694,2.694 c -2,-3.878 -6.082,-6.531 -10.736,-6.531 -4.653,0 -8.735,2.653 -10.736,6.531 l -2.694,-2.694 v -9.715 c 0,-1.592 -1.265,-2.858 -2.857,-2.858 -1.592,0 -2.858,1.266 -2.858,2.858 v 10.899 c 0,0.775 0.286,1.469 0.858,2 l 6.286,6.286 c 0.531,5.144 4.286,9.307 9.184,10.491 v 17.553 c 0,9.062 -7.388,16.451 -16.45,16.451 v -7.92 c 0,-3.551 -2.858,-6.449 -6.45,-6.449 h -4 v 36.371 h 4 c 3.552,0 6.45,-2.899 6.45,-6.45 v -9.878 c 12.205,0 22.165,-9.961 22.165,-22.166 v -17.553 c 4.899,-1.183 8.654,-5.388 9.185,-10.49 l 6.286,-6.287 c 0.531,-0.53 0.817,-1.265 0.817,-2 v -10.899 c -0.041,-1.551 -1.347,-2.817 -2.899,-2.817 z"
     id="path34"
     inkscape:connector-curvature="0"
     style="fill:#3b4652" />
  <path
     d="m 83.06933,236.5654 c 0,8.94 7.2252,16.165 16.1648,16.165 8.94,0 16.165,-7.225 16.165,-16.165 v -1.02 h -32.3298 z"
     id="path36"
     inkscape:connector-curvature="0"
     style="fill:#3b4652" />
  <path
     d="m 143.89113,132.4734 c 0,-12.327 -5.021,-23.512 -13.062,-31.595 -8.083,-8.082 -19.267,-13.062 -31.595,-13.062 -24.6555,0 -44.6575,20.002 -44.6575,44.657 v 3.797 h 89.3145 z m -59.7606,-4.449 c -4.5718,0 -8.2457,-3.674 -8.2457,-8.246 0,-4.572 3.6739,-8.245 8.2457,-8.245 4.5719,0 8.2457,3.673 8.2457,8.245 0,4.572 -3.7146,8.246 -8.2457,8.246 z m 30.2066,0 c -4.571,0 -8.245,-3.674 -8.245,-8.246 0,-4.572 3.674,-8.245 8.245,-8.245 4.572,0 8.246,3.673 8.246,8.245 0.041,4.572 -3.674,8.246 -8.246,8.246 z"
     id="path38"
     inkscape:connector-curvature="0"
     style="fill:#3b4652" />
  <path
     d="m 54.57663,204.4804 c 0,14.002 11.3481,25.35 25.3494,25.35 h 38.6161 c 14.001,0 25.349,-11.348 25.349,-25.35 v -62.455 h -89.3145 z m 27.8395,-39.759 h 33.677 v 24.778 c 0,9.307 -7.552,16.818 -16.818,16.818 -9.2664,0 -16.8182,-7.551 -16.8182,-16.818 v -24.778 z"
     id="path40"
     inkscape:connector-curvature="0"
     style="fill:#e73d3a" />
  <path
     d="m 38.41193,163.3744 v 7.92 c -9.0621,0 -16.4506,-7.389 -16.4506,-16.451 v -17.553 c 4.8984,-1.184 8.6539,-5.388 9.1846,-10.491 l 6.2863,-6.286 c 0.5307,-0.531 0.8572,-1.265 0.8572,-2 v -10.899 c 0,-1.592 -1.2654,-2.858 -2.8574,-2.858 -1.592,0 -2.8574,1.266 -2.8574,2.858 v 9.715 l -2.6942,2.694 c -2.0002,-3.878 -6.0822,-6.531 -10.7357,-6.531 -4.6535,0 -8.7356,2.653 -10.7357,6.531 l -2.6942,-2.694 v -9.715 c 0,-1.592 -1.26542,-2.858 -2.85741,-2.858 -1.59199,0 -2.85742,1.266 -2.85742,2.858 v 10.899 c 0,0.775 0.28574,1.469 0.81641,2 l 6.28632,6.286 c 0.5307,5.144 4.2861,9.307 9.1846,10.491 v 17.553 c 0,12.205 9.9601,22.165 22.1654,22.165 v 9.879 c 0,3.551 2.8574,6.449 6.4496,6.449 h 4.0004 v -36.37 h -4.0004 c -3.633,0 -6.4904,2.857 -6.4904,6.408 z"
     id="path42"
     inkscape:connector-curvature="0"
     style="fill:#3b4652" />
  <path
     d="m 195.69213,104.7564 c -1.592,0 -2.857,1.266 -2.857,2.858 v 9.715 l -2.694,2.694 c -2,-3.878 -6.082,-6.531 -10.736,-6.531 -4.653,0 -8.735,2.653 -10.736,6.531 l -2.694,-2.694 v -9.715 c 0,-1.592 -1.265,-2.858 -2.857,-2.858 -1.592,0 -2.858,1.266 -2.858,2.858 v 10.899 c 0,0.775 0.286,1.469 0.858,2 l 6.286,6.286 c 0.531,5.144 4.286,9.307 9.184,10.491 v 17.553 c 0,9.062 -7.388,16.451 -16.45,16.451 v -7.92 c 0,-3.551 -2.858,-6.449 -6.45,-6.449 h -4 v 36.371 h 4 c 3.552,0 6.45,-2.899 6.45,-6.45 v -9.878 c 12.205,0 22.165,-9.961 22.165,-22.166 v -17.553 c 4.899,-1.183 8.654,-5.388 9.185,-10.49 l 6.286,-6.287 c 0.531,-0.53 0.817,-1.265 0.817,-2 v -10.899 c -0.041,-1.551 -1.347,-2.817 -2.899,-2.817 z"
     id="path44"
     inkscape:connector-curvature="0"
     style="fill:#3b4652" />
</svg>
